<svg id="Capa_1" data-name="Capa 1" xmlns="http://www.w3.org/2000/svg" width="600" height="600" viewBox="0 0 600 600">
  <defs>
    <style>
      .cls-1 {
        fill: #0d6efd;
      }
    </style>
  </defs>
  <g>
    <path d="M551,335.4c-.65,35.27-26.51,64.22-59.9,68.31-7,29.89-33.35,52.35-64.39,52.52h.64a68.38,68.38,0,0,1-45.17-17.09h-.26a64.15,64.15,0,0,1-43.28,17.06,63,63,0,0,1-38.93-13.44,63.08,63.08,0,0,1-38.31,13.47h.65a68.37,68.37,0,0,1-45.17-17.09h-.44a65.14,65.14,0,0,1-89.8-3.33,69.05,69.05,0,0,1-17.91-32.65C75.44,399,49.64,370.17,49,335a71.17,71.17,0,0,1,20.16-51.1,66.42,66.42,0,0,1,32.65-18.45,38.6,38.6,0,0,1-.17-3.86,71,71,0,0,1,20.21-50.69A66.23,66.23,0,0,1,164,191.05a69.31,69.31,0,0,1,16.35-27,66.45,66.45,0,0,1,93.94-1.58l.37.36h50a66.63,66.63,0,0,1,94.2.85l.36.38a69.89,69.89,0,0,1,16.4,27A66.35,66.35,0,0,1,478,211.05,71.26,71.26,0,0,1,498.24,262a35.88,35.88,0,0,1-.18,3.74,66.59,66.59,0,0,1,32.74,18.51A71.42,71.42,0,0,1,551,335.4Z"/>
    <g>
      <path class="cls-1" d="M455.75,261.29c-.18,14.23-11.2,26.22-24.36,26.44-10.5.17-19.56-6.78-23.33-16.64H191.68c-3.77,9.86-12.82,16.81-23.33,16.64-13.17-.22-24.2-12.21-24.36-26.44-.21-15,10.95-27.23,24.78-27.23,11,0,20.36,7.76,23.6,18.52h215c3.24-10.76,12.57-18.52,23.6-18.52C444.8,234.11,456,246.37,455.75,261.29Z"/>
      <path class="cls-1" d="M507.77,335.36c-.26,14-11,25.81-23.92,26.33-10.21.4-19-5.91-23.18-15.12H369.21l-34.25-37H264.73l-34.25,37H139.09c-4.16,9.21-12.91,15.52-23.18,15.12C103,361.17,92.25,349.34,92,335.36c-.26-15,11-27.38,24.84-27.38,11.47,0,21.21,8.61,24,20.08h82.59l34.24-37h84.54l34.23,37H459C461.74,316.5,471.43,308,483,308,496.81,308,508,320.34,507.77,335.36Z"/>
      <g>
        <path class="cls-1" d="M283.47,388.25c-.12,13.25-10.55,24.31-22.76,24.4a23.11,23.11,0,0,1-21.57-16.23H195.31c-3.23,9.47-11.63,16.23-21.49,16.23-12.68,0-23.06-11.27-22.9-25.14.17-13.25,10.56-24.31,22.81-24.4,9.87,0,18.32,6.75,21.58,16.22h43.8c3.18-9.47,11.62-16.22,21.48-16.22C273.33,363.11,283.66,374.38,283.47,388.25Z"/>
        <path class="cls-1" d="M448.76,388.25c-.12,13.25-10.55,24.31-22.76,24.4-9.87,0-18.32-6.76-21.57-16.23H360.62c-3.22,9.47-11.62,16.23-21.48,16.23-12.68,0-23.07-11.27-22.9-25.14.17-13.25,10.55-24.31,22.81-24.4,9.86,0,18.32,6.75,21.57,16.22h43.81c3.19-9.47,11.62-16.22,21.48-16.22C438.65,363.11,449,374.38,448.76,388.25Z"/>
      </g>
      <path class="cls-1" d="M396.74,215.2c-.26,14.1-11.18,26-24.26,26.33-10.4.26-19.35-6.4-23.3-16H250.51c-3.95,9.61-12.93,16.27-23.3,16-13.07-.36-24-12.23-24.26-26.33-.32-15.13,10.92-27.46,24.83-27.46,11.28,0,20.8,8.12,23.82,19.26h96.49c3-11.14,12.54-19.26,23.81-19.26C385.82,187.74,397.05,200.11,396.74,215.2Z"/>
    </g>
  </g>
</svg>
