<svg id="Capa_1" data-name="Capa 1" xmlns="http://www.w3.org/2000/svg" width="1080" height="1080" viewBox="0 0 1080 1080">
  <defs>
    <style>
      .cls-1 {
        fill: #fff;
      }

      .cls-2 {
        fill: #0d6efd;
      }
    </style>
  </defs>
  <g>
    <path d="M1022.19,534.93V650a25.42,25.42,0,0,1-25.43,25.43H958.41A25.41,25.41,0,0,1,944,671a25.4,25.4,0,0,1-14.39,4.45H891.3a25.23,25.23,0,0,1-14.57-4.6,25.4,25.4,0,0,1-14.58,4.6H795a25.63,25.63,0,0,1-9-1.62,24.4,24.4,0,0,1,.45,4.73V812.73a25.44,25.44,0,0,1-25.43,25.43H722.74a25.24,25.24,0,0,1-14.36-4.45,25.46,25.46,0,0,1-14.4,4.45H655.63a25.26,25.26,0,0,1-14.57-4.6,25.45,25.45,0,0,1-14.57,4.6H559.38a25.31,25.31,0,0,1-14.57-4.6,25.28,25.28,0,0,1-14.6,4.6H424.75a25.33,25.33,0,0,1-19.35-8.95A25.46,25.46,0,0,1,386,838.16H347.67a25.44,25.44,0,0,1-25.43-25.43V742.29h-3.33a25.44,25.44,0,0,1-25.43-25.43V678.51a24.4,24.4,0,0,1,.45-4.73,25.63,25.63,0,0,1-9,1.62H217.85a25.44,25.44,0,0,1-18-7.45l-6.18-6.18L187.51,668a25.49,25.49,0,0,1-18,7.45H102.42a25.39,25.39,0,0,1-18-7.45L65.26,648.78a25.41,25.41,0,0,1-7.45-18V592.45a25.42,25.42,0,0,1,19.25-24.67l38.35-9.59a26,26,0,0,1,6.18-.76,28.63,28.63,0,0,1,3.33.21V515.75a25.42,25.42,0,0,1,25.43-25.43H188.7a25.23,25.23,0,0,1,14.57,4.6,25.48,25.48,0,0,1,14.58-4.6H285a25.37,25.37,0,0,1,18,7.45l6.18,6.18,6.18-6.18a25.4,25.4,0,0,1,18-7.45h67.12a25.44,25.44,0,0,1,14.59,4.6,25.27,25.27,0,0,1,14.58-4.6H467.9a25.32,25.32,0,0,1,14.37,4.45,25.31,25.31,0,0,1,14.4-4.45H535a27.13,27.13,0,0,1,5,.48,27.13,27.13,0,0,1,5-.48H650.44A25.32,25.32,0,0,1,665,494.9a25.57,25.57,0,0,1,14.59-4.58h67.12a25.4,25.4,0,0,1,18,7.45l6.18,6.18,6.18-6.18a25.37,25.37,0,0,1,18-7.45h67.11a25.36,25.36,0,0,1,18,7.45l6.18,6.18,6.18-6.18a25.41,25.41,0,0,1,18-7.45h67.11a25.43,25.43,0,0,1,18,7.45L1014.76,517A25.42,25.42,0,0,1,1022.19,534.93Z"/>
    <g>
      <path class="cls-1" d="M150.34,611.62V515.75h38.35v115L169.52,650H102.41L83.23,630.79V592.44l38.35-9.58v28.76Z"/>
      <path class="cls-1" d="M285,515.75l19.17,19.17v28.76l-38.35,9.59V554.1H237v57.52h28.76V592.44L304.13,602v28.76L285,650H217.85l-19.18-19.18V534.92l19.18-19.17Z"/>
      <path class="cls-1" d="M400.4,515.75l19.17,19.17V650H381.22V621.21H352.46V650H314.11V534.92l19.18-19.17Zm-19.18,67.11V554.1H352.46v28.76Z"/>
      <path class="cls-1" d="M467.9,582.86V650H429.55V515.75H467.9l28.76,67.11V515.75H535V650H496.66Z"/>
      <path class="cls-1" d="M650.45,515.75V554.1H583.34v9.58h57.52L631.28,602H583.34v9.59h67.11V650H545V515.75Z"/>
      <path class="cls-1" d="M746.71,515.75l19.18,19.17V554.1H698.78v9.58h47.93l19.18,19.18v47.93L746.71,650H679.6l-19.17-19.18V611.62h67.11V602H679.6l-19.17-19.17V534.92l19.17-19.17Z"/>
      <path class="cls-1" d="M862.15,515.75l19.18,19.17V554.1H814.22v9.58h47.93l19.18,19.18v47.93L862.15,650H795l-19.17-19.18V611.62H843V602H795l-19.17-19.17V534.92L795,515.75Z"/>
      <path class="cls-1" d="M977.59,515.75l19.18,19.17V650H958.42V621.21H929.66V650H891.31V534.92l19.17-19.17Zm-19.17,67.11V554.1H929.66v28.76Z"/>
      <path class="cls-1" d="M414.78,678.5v38.35H386v95.87H347.67V716.85H318.91V678.5Z"/>
      <path class="cls-1" d="M530.22,678.5v38.35H463.11v9.59h57.52L511,764.79H463.11v9.58h67.11v38.35H424.76V678.5Z"/>
      <path class="cls-1" d="M626.48,678.5l19.18,19.18v28.76L607.31,736V716.85H578.54v57.52h28.77V755.2l38.35,9.59v28.76l-19.18,19.17H559.37L540.2,793.55V697.68l19.17-19.18Z"/>
      <path class="cls-1" d="M694,764.79v47.93H655.64V678.5H694v47.94h28.77V678.5H761.1V812.72H722.75V764.79Z"/>
    </g>
    <g>
      <path d="M721.4,376.43c-.46,24.78-18.63,45.12-42.09,48-4.92,21-23.43,36.78-45.24,36.9h-.19a46.05,46.05,0,0,1-30.42-11.51h-.83a46.09,46.09,0,0,1-30.39,11.51,45.39,45.39,0,0,1-27.34-9.07A45.44,45.44,0,0,1,518,461.35h-.19a46.05,46.05,0,0,1-30.42-11.51h-.83a45.89,45.89,0,0,1-63.26-2.35,48.62,48.62,0,0,1-12.62-23c-23.46-2.9-41.63-23.24-42.09-48a50.1,50.1,0,0,1,14.2-36,46.82,46.82,0,0,1,23-13c-.09-.92-.12-1.81-.12-2.72a50,50,0,0,1,14.24-35.71,46.7,46.7,0,0,1,29.72-14,48.77,48.77,0,0,1,11.52-19,46.8,46.8,0,0,1,66.44-.86H562.4a46.8,46.8,0,0,1,66.44.86,49.13,49.13,0,0,1,11.52,19,46.63,46.63,0,0,1,29.72,14,50.05,50.05,0,0,1,14.24,35.8,25.46,25.46,0,0,1-.12,2.63,46.82,46.82,0,0,1,23,13A50.19,50.19,0,0,1,721.4,376.43Z"/>
      <g>
        <path class="cls-2" d="M653.79,324.41c-.13,9.93-7.82,18.3-17,18.45-7.33.12-13.65-4.73-16.28-11.61h-151c-2.63,6.88-8.95,11.73-16.28,11.61-9.19-.15-16.89-8.52-17-18.45-.15-10.45,7.64-19,17.29-19,7.7,0,14.21,5.41,16.47,12.92H620c2.26-7.51,8.77-12.92,16.47-12.92C646.15,305.44,653.94,314,653.79,324.41Z"/>
        <path class="cls-2" d="M690.87,375.91c-.18,9.75-7.67,18-16.68,18.36-7.12.28-13.26-4.12-16.16-10.54H592.87l-23.64-25.56H520.75l-23.64,25.56H432c-2.9,6.42-9,10.82-16.16,10.54-9-.36-16.5-8.61-16.68-18.36-.18-10.47,7.64-19.09,17.32-19.09,8,0,14.79,6,16.71,14h59l23.64-25.57h58.38l23.64,25.57h59c1.92-8.06,8.68-14,16.71-14C683.23,356.82,691.05,365.44,690.87,375.91Z"/>
        <g>
          <path class="cls-2" d="M534,413.49c-.09,9.41-7.49,17.26-16.16,17.32a16.4,16.4,0,0,1-15.31-11.52H471.42c-2.29,6.72-8.25,11.52-15.25,11.52-9,0-16.37-8-16.25-17.84.12-9.41,7.49-17.26,16.19-17.32,7,0,13,4.79,15.31,11.51h31.09c2.26-6.72,8.25-11.51,15.25-11.51C526.8,395.65,534.13,403.65,534,413.49Z"/>
          <path class="cls-2" d="M650.06,413.49c-.09,9.41-7.49,17.26-16.16,17.32-7,0-13-4.8-15.31-11.52H587.5c-2.29,6.72-8.25,11.52-15.25,11.52-9,0-16.37-8-16.25-17.84.12-9.41,7.49-17.26,16.19-17.32,7,0,13,4.79,15.31,11.51h31.09c2.27-6.72,8.25-11.51,15.25-11.51C642.88,395.65,650.21,403.65,650.06,413.49Z"/>
        </g>
        <path class="cls-2" d="M612.45,291.51c-.18,9.81-7.78,18.08-16.89,18.33-7.24.18-13.47-4.46-16.22-11.15h-68.7c-2.75,6.69-9,11.33-16.22,11.15-9.1-.25-16.71-8.52-16.89-18.33-.22-10.54,7.6-19.12,17.29-19.12,7.85,0,14.48,5.65,16.58,13.41h67.18c2.11-7.76,8.73-13.41,16.58-13.41C604.85,272.39,612.67,281,612.45,291.51Z"/>
      </g>
    </g>
  </g>
</svg>
