<svg id="Capa_1" data-name="Capa 1" xmlns="http://www.w3.org/2000/svg" width="1080" height="380" viewBox="0 0 1080 380">
  <defs>
    <style>
      .cls-1 {
        fill: #fff;
      }

      .cls-2 {
        fill: #0d6efd;
      }
    </style>
  </defs>
  <path d="M1024.48,226.63v89.49a17,17,0,0,1-17,16.95H982a16.83,16.83,0,0,1-9.58-3,16.94,16.94,0,0,1-9.6,3H937.21a16.89,16.89,0,0,1-9.73-3.07,16.89,16.89,0,0,1-9.69,3.07H873a16.86,16.86,0,0,1-9.71-3.07,16.89,16.89,0,0,1-9.73,3.07H783.29a16.92,16.92,0,0,1-12.91-6,16.94,16.94,0,0,1-12.92,6H731.9a17,17,0,0,1-17-16.95v-47h-2.22a16.91,16.91,0,0,1-14.24-7.76v54.73a17,17,0,0,1-17,16.95H656a16.83,16.83,0,0,1-9.58-3,16.94,16.94,0,0,1-9.6,3H611.22a16.9,16.9,0,0,1-9.74-3.07,16.89,16.89,0,0,1-9.69,3.07H547a16.94,16.94,0,0,1-12-5L530.94,324l-4.14,4.12a17,17,0,0,1-12,5H470.07a17,17,0,0,1-9.71-3.07,16.89,16.89,0,0,1-9.72,3.07H380.33a18.14,18.14,0,0,1-3.32-.32,18.45,18.45,0,0,1-3.34.32H348.1a17.07,17.07,0,0,1-9.58-3,16.91,16.91,0,0,1-9.59,3H303.36a18,18,0,0,1-3.32-.32,18.16,18.16,0,0,1-3.33.32H271.15a16.83,16.83,0,0,1-9.58-3,16.94,16.94,0,0,1-9.6,3H226.4a16.85,16.85,0,0,1-9.71-3.07,17,17,0,0,1-9.72,3.07H162.23a17,17,0,0,1-12-5L146.13,324,142,328.1a17,17,0,0,1-12,5H85.26a17,17,0,0,1-12-5L60.49,315.32a17,17,0,0,1-5-12V277.76a17,17,0,0,1,12.85-16.44l25.57-6.39a16.87,16.87,0,0,1,4.1-.51,20.36,20.36,0,0,1,2.22.13V226.63a17,17,0,0,1,17-16.95h25.57a16.89,16.89,0,0,1,9.73,3.06,16.85,16.85,0,0,1,9.71-3.06H207a17,17,0,0,1,12,5l4.12,4.12,4.12-4.12a16.93,16.93,0,0,1,12-5h44.74a17,17,0,0,1,9.71,3.06,16.88,16.88,0,0,1,9.72-3.06h25.57a16.87,16.87,0,0,1,9.59,3,16.84,16.84,0,0,1,9.58-3h25.57A17.59,17.59,0,0,1,377,210a17.3,17.3,0,0,1,3.32-.32h70.31a16.88,16.88,0,0,1,9.72,3.06,17,17,0,0,1,9.71-3.06h44.74a16.93,16.93,0,0,1,12,5l4.14,4.14,4.12-4.14a16.89,16.89,0,0,1,12-5h44.75a16.94,16.94,0,0,1,12,5l4.12,4.12,4.12-4.12a17,17,0,0,1,12-5h44.74a16.93,16.93,0,0,1,12,5l12.78,12.79a16.24,16.24,0,0,1,2.26,2.79v-3.59a17,17,0,0,1,17-16.95h63.92A17.15,17.15,0,0,1,780,210a17.33,17.33,0,0,1,3.33-.32H853.6a16.85,16.85,0,0,1,9.71,3.06,17,17,0,0,1,9.73-3.06h44.75a17,17,0,0,1,9.71,3.06,16.85,16.85,0,0,1,9.71-3.06h25.57a16.86,16.86,0,0,1,9.6,3,16.75,16.75,0,0,1,9.58-3h25.56A17,17,0,0,1,1024.48,226.63Z"/>
  <g>
    <path class="cls-1" d="M117.22,290.54V226.63h25.57v76.7L130,316.11H85.26L72.48,303.33V277.76l25.57-6.39v19.17Z"/>
    <path class="cls-1" d="M207,226.63l12.78,12.78v19.18L194.19,265V252.19H175v38.35h19.18V277.76l25.56,6.39v19.18L207,316.11H162.23l-12.79-12.78V239.41l12.79-12.78Z"/>
    <path class="cls-1" d="M283.93,226.63l12.78,12.78v76.7H271.15V296.94H252v19.17H226.41v-76.7l12.78-12.78Zm-12.78,44.74V252.19H252v19.18Z"/>
    <path class="cls-1" d="M328.93,271.37v44.74H303.37V226.63h25.56l19.18,44.74V226.63h25.57v89.48H348.11Z"/>
    <path class="cls-1" d="M450.64,226.63v25.56H405.9v6.4h38.35l-6.39,25.56h-32v6.39h44.74v25.57H380.33V226.63Z"/>
    <path class="cls-1" d="M514.82,226.63l12.78,12.78v12.78H482.86v6.4h32l12.78,12.78v32l-12.78,12.78H470.08l-12.79-12.78V290.54H502v-6.39H470.08l-12.79-12.78v-32l12.79-12.78Z"/>
    <path class="cls-1" d="M591.78,226.63l12.78,12.78v12.78H559.82v6.4h32l12.78,12.78v32l-12.78,12.78H547l-12.79-12.78V290.54H579v-6.39H547l-12.79-12.78v-32L547,226.63Z"/>
    <path class="cls-1" d="M668.74,226.63l12.79,12.78v76.7H656V296.94H636.78v19.17H611.22v-76.7L624,226.63ZM656,271.37V252.19H636.78v19.18Z"/>
    <path class="cls-1" d="M776.64,226.63v25.56H757.46v63.92H731.9V252.19H712.72V226.63Z"/>
    <path class="cls-1" d="M853.6,226.63v25.56H808.86v6.4h38.35l-6.39,25.56h-32v6.39H853.6v25.57H783.29V226.63Z"/>
    <path class="cls-1" d="M917.78,226.63l12.78,12.78v19.18L905,265V252.19H885.82v38.35H905V277.76l25.56,6.39v19.18l-12.78,12.78H873l-12.79-12.78V239.41L873,226.63Z"/>
    <path class="cls-1" d="M962.78,284.15v32H937.22V226.63h25.56v32H982v-32h25.57v89.48H982v-32Z"/>
  </g>
  <g>
    <path d="M657.61,128.66c-.3,16.52-12.42,30.08-28.06,32-3.28,14-15.62,24.52-30.16,24.6h-.13A30.7,30.7,0,0,1,579,177.6h-.55a30.73,30.73,0,0,1-20.26,7.68,30.29,30.29,0,0,1-18.23-6.05A30.26,30.26,0,0,1,522,185.28h-.13a30.7,30.7,0,0,1-20.28-7.68H501A30.58,30.58,0,0,1,458.86,176a32.41,32.41,0,0,1-8.41-15.35c-15.64-1.94-27.76-15.5-28.06-32a33.38,33.38,0,0,1,9.47-24A31.16,31.16,0,0,1,447.19,96c-.06-.62-.08-1.21-.08-1.82a33.33,33.33,0,0,1,9.49-23.8,31.17,31.17,0,0,1,19.82-9.33,32.5,32.5,0,0,1,7.68-12.65,31.2,31.2,0,0,1,44.29-.57h23.22a31.2,31.2,0,0,1,44.29.57,32.74,32.74,0,0,1,7.68,12.65,31.12,31.12,0,0,1,19.82,9.33,33.37,33.37,0,0,1,9.49,23.86,17,17,0,0,1-.08,1.76,31.16,31.16,0,0,1,15.33,8.67A33.44,33.44,0,0,1,657.61,128.66Z"/>
    <g>
      <path class="cls-2" d="M612.53,94c-.08,6.62-5.21,12.2-11.34,12.3a11.62,11.62,0,0,1-10.86-7.74H489.67a11.62,11.62,0,0,1-10.86,7.74c-6.13-.1-11.26-5.68-11.34-12.3-.1-7,5.09-12.65,11.52-12.65A11.66,11.66,0,0,1,490,90H590a11.66,11.66,0,0,1,11-8.62C607.44,81.33,612.63,87,612.53,94Z"/>
      <path class="cls-2" d="M637.26,128.32c-.13,6.49-5.11,12-11.12,12.24a11.46,11.46,0,0,1-10.78-7H571.92l-15.76-17H523.84l-15.76,17H464.64a11.46,11.46,0,0,1-10.78,7c-6-.25-11-5.75-11.12-12.24-.12-7,5.09-12.73,11.55-12.73,5.36,0,9.86,4,11.14,9.34h39.35l15.76-17h38.92l15.76,17h39.35c1.28-5.37,5.78-9.34,11.14-9.34C632.17,115.59,637.38,121.33,637.26,128.32Z"/>
      <g>
        <path class="cls-2" d="M532.66,153.37c-.06,6.27-5,11.5-10.78,11.54a10.92,10.92,0,0,1-10.2-7.67H491a10.91,10.91,0,0,1-10.16,7.67c-6,0-10.92-5.33-10.84-11.89.08-6.27,5-11.51,10.8-11.55a11,11,0,0,1,10.2,7.68h20.73a10.9,10.9,0,0,1,10.16-7.68C527.87,141.47,532.76,146.81,532.66,153.37Z"/>
        <path class="cls-2" d="M610.05,153.37c-.06,6.27-5,11.5-10.78,11.54a10.92,10.92,0,0,1-10.2-7.67H568.34a10.91,10.91,0,0,1-10.16,7.67c-6,0-10.92-5.33-10.84-11.89.08-6.27,5-11.51,10.8-11.55a11,11,0,0,1,10.2,7.68h20.73a10.9,10.9,0,0,1,10.16-7.68C605.26,141.47,610.15,146.81,610.05,153.37Z"/>
      </g>
      <path class="cls-2" d="M585,72c-.12,6.54-5.2,12.06-11.26,12.22a11.5,11.5,0,0,1-10.82-7.43H517.1a11.5,11.5,0,0,1-10.82,7.43C500.22,84.1,495.14,78.58,495,72c-.14-7,5.07-12.74,11.53-12.74a11.69,11.69,0,0,1,11.06,8.94h44.78a11.69,11.69,0,0,1,11.06-8.94C579.91,59.3,585.12,65,585,72Z"/>
    </g>
  </g>
</svg>
